<?xml version="1.0" encoding="UTF-8"?>
<svg version="1.1" xmlns="http://www.w3.org/2000/svg" width="472" height="466">
<path d="M0 0 C1.02512695 -0.01015137 2.05025391 -0.02030273 3.10644531 -0.03076172 C22.95663492 0.19575121 38.56200009 9.26715832 52.58203125 22.73828125 C64.84329722 35.50085962 74.02097555 54.48061374 74.1875 72.4375 C74.23648437 73.54996094 74.28546875 74.66242188 74.3359375 75.80859375 C75.05187632 102.27079383 64.38651133 120.96357169 46.56347656 139.85791016 C41.19880638 145.47879908 35.73238505 150.99445977 30.1875 156.4375 C33.36935995 155.74421221 36.17871944 154.64874518 39.15234375 153.328125 C40.11108398 152.9053125 41.06982422 152.4825 42.05761719 152.046875 C43.06985352 151.59828125 44.08208984 151.1496875 45.125 150.6875 C67.54677537 140.87405277 89.75861394 133.21200796 114.1875 141.4375 C123.79612467 145.32613894 133.45712116 150.46050554 141.1875 157.4375 C141.1875 158.0975 141.1875 158.7575 141.1875 159.4375 C142.1775 159.7675 143.1675 160.0975 144.1875 160.4375 C159.87139189 176.70101398 165.67352871 197.06498068 165.55151367 219.24731445 C164.93856385 238.88774131 157.07637493 257.43625553 143.1875 271.4375 C140.31177732 273.87922254 137.40293826 276.2149174 134.375 278.46484375 C131.9576541 280.64477175 131.66053108 281.32323216 131.1875 284.4375 C131.3184433 286.66728534 131.3184433 286.66728534 131.74609375 289 C131.8850708 289.87333984 132.02404785 290.74667969 132.16723633 291.64648438 C132.39382935 293.02803711 132.39382935 293.02803711 132.625 294.4375 C136.03285325 316.84885501 133.1389313 338.73889583 121.1875 358.4375 C109.04785419 374.72899494 89.23413599 386.99921641 69.1875 390.4375 C46.5447141 392.73816669 20.77315119 387.20478211 2.87109375 372.75 C1.98550781 371.986875 1.09992188 371.22375 0.1875 370.4375 C-0.54339844 369.81875 -1.27429688 369.2 -2.02734375 368.5625 C-22.49746343 349.65527586 -38.99782994 320.72442903 -47.8125 294.4375 C-47.8125 293.4475 -47.8125 292.4575 -47.8125 291.4375 C-48.4725 291.4375 -49.1325 291.4375 -49.8125 291.4375 C-49.84342239 291.99728546 -49.87434479 292.55707092 -49.90620422 293.13381958 C-52.98115015 348.57523107 -52.98115015 348.57523107 -55.8125 371.4375 C-55.90966309 372.24670898 -56.00682617 373.05591797 -56.10693359 373.88964844 C-57.47284738 384.76451526 -60.1434953 395.3691684 -62.75 406 C-63.0038295 407.04664825 -63.0038295 407.04664825 -63.26278687 408.11444092 C-68.35756069 428.98256069 -68.35756069 428.98256069 -75.8125 436.4375 C-80.02459585 438.64637486 -84.14569033 438.83625343 -88.8125 438.875 C-89.51117188 438.90787109 -90.20984375 438.94074219 -90.9296875 438.97460938 C-94.74960381 439.01425002 -96.70138631 438.51332376 -99.875 436.34765625 C-101.8125 433.4375 -101.8125 433.4375 -101.66015625 430.27001953 C-100.6903514 425.88522791 -99.11149313 422.24033343 -97.1875 418.20703125 C-92.81523669 408.69936181 -89.22682626 399.01103629 -85.8125 389.125 C-85.51257141 388.26165039 -85.21264282 387.39830078 -84.90362549 386.50878906 C-74.57643664 356.70404969 -66.51425072 327.15663267 -65.8125 295.4375 C-66.33251587 296.675 -66.33251587 296.675 -66.86303711 297.9375 C-81.03121891 331.51578639 -96.39629694 364.17828442 -131.94042969 379.69433594 C-153.24828047 388.15300805 -178.98266388 388.15133 -200.1875 379.6875 C-206.11248773 376.98217866 -211.00333235 373.81297517 -215.8125 369.4375 C-216.42480469 368.89351563 -217.03710938 368.34953125 -217.66796875 367.7890625 C-230.59074983 355.63651341 -241.4240479 334.68378331 -242.01171875 316.80078125 C-242.14353304 308.56751873 -241.73061494 300.76108584 -240.328125 292.62890625 C-240.02350517 289.61406585 -240.02065916 287.3749741 -240.8125 284.4375 C-243.24183753 281.97203849 -245.80157606 280.30300599 -248.7265625 278.45703125 C-264.62937055 268.04975054 -274.05168977 250.23674415 -278.06640625 232.13671875 C-278.9241191 227.88407967 -279.61368853 223.76993321 -279.8125 219.4375 C-279.8640625 218.71175781 -279.915625 217.98601562 -279.96875 217.23828125 C-280.7422525 197.7395724 -272.84521128 176.43064791 -260.25 161.75 C-245.69236599 146.61888344 -226.8563078 137.65796688 -205.8125 136.4375 C-204.57306641 136.35822266 -204.57306641 136.35822266 -203.30859375 136.27734375 C-180.83903303 135.52508771 -159.48772899 147.86721199 -139.8125 157.4375 C-139.4825 157.1075 -139.1525 156.7775 -138.8125 156.4375 C-140.16404197 154.91433366 -141.51889702 153.39410701 -142.875 151.875 C-143.62910156 151.02808594 -144.38320312 150.18117187 -145.16015625 149.30859375 C-147.14629492 147.15864983 -149.15518323 145.10897202 -151.24609375 143.06640625 C-168.51190731 125.89393403 -178.07795598 104.64072667 -178.25 80.25 C-177.96707679 58.2516649 -170.30211173 39.81695908 -155.203125 23.7421875 C-140.60441882 9.66827141 -121.06734675 1.58259592 -100.8125 1.0625 C-99.14315563 1.14430554 -97.47520818 1.26778178 -95.8125 1.4375 C-94.97332031 1.52 -94.13414062 1.6025 -93.26953125 1.6875 C-81.089239 3.41469063 -69.59417669 8.43165187 -59.36328125 15.1171875 C-56.49592531 16.60136255 -54.99141056 16.90997136 -51.8125 16.4375 C-49.74819548 15.36437649 -49.74819548 15.36437649 -47.8125 13.8125 C-33.20138843 3.62317219 -17.50535791 0.12210624 0 0 Z " fill="#079753" transform="translate(293.8125,16.5625)"/>
<path d="M0 0 C0.33 0 0.66 0 1 0 C1.21273187 9.11532427 0.66536699 17.90636616 -0.5625 26.9375 C-0.73595947 28.22148682 -0.90941895 29.50547363 -1.08813477 30.82836914 C-8.2628455 81.77313675 -8.2628455 81.77313675 -19.375 93.80078125 C-23.87888781 97.12456384 -28.56336015 97.39236185 -34 97.4375 C-34.69867188 97.47037109 -35.39734375 97.50324219 -36.1171875 97.53710938 C-39.93710381 97.57675002 -41.88888631 97.07582376 -45.0625 94.91015625 C-47 92 -47 92 -47.046875 88.7265625 C-45.82436534 84.37479305 -44.17591201 80.45438388 -42.25 76.375 C-38.86724465 69.00868519 -35.79722186 61.61167104 -33 54 C-32.34 54 -31.68 54 -31 54 C-31.144375 54.68707031 -31.28875 55.37414062 -31.4375 56.08203125 C-31.623125 56.98308594 -31.80875 57.88414062 -32 58.8125 C-32.185625 59.70582031 -32.37125 60.59914063 -32.5625 61.51953125 C-33.08684843 64.07260693 -33.08684843 64.07260693 -33 67 C-33.66 67 -34.32 67 -35 67 C-35.268125 67.680625 -35.53625 68.36125 -35.8125 69.0625 C-36.204375 70.031875 -36.59625 71.00125 -37 72 C-37.24105469 72.61230469 -37.48210937 73.22460938 -37.73046875 73.85546875 C-39.77425614 78.88712807 -39.77425614 78.88712807 -42 80 C-43.03802187 83.92141595 -43.4489073 87.98489604 -44 92 C-40.12507034 95.37608814 -37.50934588 95.39456819 -32.53515625 95.21875 C-27.82522341 94.81234593 -24.31373467 94.23866412 -20.8125 90.9375 C-16.41771993 83.8149254 -12.71953626 75.4072131 -12 67 C-13.31702655 65.1232388 -13.31702655 65.1232388 -15 64 C-14.20996582 63.78239014 -13.41993164 63.56478027 -12.60595703 63.34057617 C-9.81008718 62.24578595 -9.81008718 62.24578595 -8.92919922 59.6027832 C-8.72311035 58.59562256 -8.51702148 57.58846191 -8.3046875 56.55078125 C-7.94540161 54.83435425 -7.94540161 54.83435425 -7.57885742 53.08325195 C-7.34658447 51.83890381 -7.11431152 50.59455566 -6.875 49.3125 C-6.62274658 48.03785889 -6.37049316 46.76321777 -6.1105957 45.44995117 C-3.52237447 31.94909513 -2.3144653 18.30838413 -1.29370117 4.61254883 C-1 2 -1 2 0 0 Z " fill="#15794A" transform="translate(239,358)"/>
... (file truncated here for brevity) ...
</svg>
