<?xml version="1.0" encoding="UTF-8"?>
<svg version="1.1" xmlns="http://www.w3.org/2000/svg" width="472" height="466">
<path d="M0 0 C1.02512695 -0.01015137 2.05025391 -0.02030273 3.10644531 -0.03076172 C22.95663492 0.19575121 38.56200009 9.26715832 52.58203125 22.73828125 C64.84329722 35.50085962 74.02097555 54.48061374 74.1875 72.4375 C74.23648437 73.54996094 74.28546875 74.66242188 74.3359375 75.80859375 C75.05187632 102.27079383 64.38651133 120.96357169 46.56347656 139.85791016 C41.19880638 145.47879908 35.73238505 150.99445977 30.1875 156.4375 C33.36935995 155.74421221 36.17871944 154.64874518 39.15234375 153.328125 C40.11108398 152.9053125 41.06982422 152.4825 42.05761719 152.046875 C43.06985352 151.59828125 44.08208984 151.1496875 45.125 150.6875 C67.54677537 140.87405277 89.75861394 133.21200796 114.1875 141.4375 C123.79612467 145.32613894 133.45712116 150.46050554 141.1875 157.4375 C141.1875 158.0975 141.1875 158.7575 141.1875 159.4375 C142.1775 159.7675 143.1675 160.0975 144.1875 160.4375 C159.87139189 176.70101398 165.67352871 197.06498068 165.55151367 219.24731445 C164.93856385 238.88774131 157.07637493 257.43625553 143.1875 271.4375 C140.31177732 273.87922254 137.40293826 276.2149174 134.375 278.46484375 C131.9576541 280.64477175 131.66053108 281.32323216 131.1875 284.4375 C131.3184433 286.66728534 131.3184433 286.66728534 131.74609375 289 C131.8850708 289.87333984 132.02404785 290.74667969 132.16723633 291.64648438 C132.39382935 293.02803711 132.39382935 293.02803711 132.625 294.4375 C136.03285325 316.84885501 133.1389313 338.73889583 121.1875 358.4375 C109.04785419 374.72899494 89.23413599 386.99921641 69.1875 390.4375 C46.5447141 392.73816669 20.77315119 387.20478211 2.87109375 372.75 C1.98550781 371.986875 1.09992188 371.22375 0.1875 370.4375 C-0.54339844 369.81875 -1.27429688 369.2 -2.02734375 368.5625 C-22.49746343 349.65527586 -38.99782994 320.72442903 -47.8125 294.4375 C-47.8125 293.4475 -47.8125 292.4575 -47.8125 291.4375 C-48.4725 291.4375 -49.1325 291.4375 -49.8125 291.4375 C-49.84342239 291.99728546 -49.87434479 292.55707092 -49.90620422 293.13381958 C-52.98115015 348.57523107 -52.98115015 348.57523107 -55.8125 371.4375 C-55.90966309 372.24670898 -56.00682617 373.05591797 -56.10693359 373.88964844 C-57.47284738 384.76451526 -60.1434953 395.3691684 -62.75 406 C-63.0038295 407.04664825 -63.0038295 407.04664825 -63.26278687 408.11444092 C-68.35756069 428.98256069 -68.35756069 428.98256069 -75.8125 436.4375 C-80.02459585 438.64637486 -84.14569033 438.83625343 -88.8125 438.875 C-89.51117188 438.90787109 -90.20984375 438.94074219 -90.9296875 438.97460938 C-94.74960381 439.01425002 -96.70138631 438.51332376 -99.875 436.34765625 C-101.8125 433.4375 -101.8125 433.4375 -101.66015625 430.27001953 C-100.6903514 425.88522791 -99.11149313 422.24033343 -97.1875 418.20703125 C-92.81523669 408.69936181 -89.22682626 399.01103629 -85.8125 389.125 C-85.51257141 388.26165039 -85.21264282 387.39830078 -84.90362549 386.50878906 C-74.57643664 356.70404969 -66.51425072 327.15663267 -65.8125 295.4375 C-66.33251587 296.675 -66.33251587 296.675 -66.86303711 297.9375 C-81.03121891 331.51578639 -96.39629694 364.17828442 -131.94042969 379.69433594 C-153.24828047 388.15300805 -178.98266388 388.15133 -200.1875 379.6875 C-206.11248773 376.98217866 -211.00333235 373.81297517 -215.8125 369.4375 C-216.42480469 368.89351563 -217.03710938 368.34953125 -217.66796875 367.7890625 C-230.59074983 355.63651341 -241.4240479 334.68378331 -242.01171875 316.80078125 C-242.14353304 308.56751873 -241.73061494 300.76108584 -240.328125 292.62890625 C-240.02350517 289.61406585 -240.02065916 287.3749741 -240.8125 284.4375 C-243.24183753 281.97203849 -245.80157606 280.30300599 -248.7265625 278.45703125 C-264.62937055 268.04975054 -274.05168977 250.23674415 -278.06640625 232.13671875 C-278.9241191 227.88407967 -279.61368853 223.76993321 -279.8125 219.4375 C-279.8640625 218.71175781 -279.915625 217.98601562 -279.96875 217.23828125 C-280.7422525 197.7395724 -272.84521128 176.43064791 -260.25 161.75 C-245.69236599 146.61888344 -226.8563078 137.65796688 -205.8125 136.4375 C-204.57306641 136.35822266 -204.57306641 136.35822266 -203.30859375 136.27734375 C-180.83903303 135.52508771 -159.48772899 147.86721199 -139.8125 157.4375 C-139.4825 157.1075 -139.1525 156.7775 -138.8125 156.4375 C-140.16404197 154.91433366 -141.51889702 153.39410701 -142.875 151.875 C-143.62910156 151.02808594 -144.38320312 150.18117187 -145.16015625 149.30859375 C-147.14629492 147.15864983 -149.15518323 145.10897202 -151.24609375 143.06640625 C-168.51190731 125.89393403 -178.07795598 104.64072667 -178.25 80.25 C-177.96707679 58.2516649 -170.30211173 39.81695908 -155.203125 23.7421875 C-140.60441882 9.66827141 -121.06734675 1.58259592 -100.8125 1.0625 C-99.14315563 1.14430554 -97.47520818 1.26778178 -95.8125 1.4375 C-94.97332031 1.52 -94.13414062 1.6025 -93.26953125 1.6875 C-81.089239 3.41469063 -69.59417669 8.43165187 -59.36328125 15.1171875 C-56.49592531 16.60136255 -54.99141056 16.90997136 -51.8125 16.4375 C-49.74819548 15.36437649 -49.74819548 15.36437649 -47.8125 13.8125 C-33.20138843 3.62317219 -17.50535791 0.12210624 0 0 Z " fill="#079753" transform="translate(293.8125,16.5625)"/>
<path d="M0 0 C0.33 0 0.66 0 1 0 C1.21273187 9.11532427 0.66536699 17.90636616 -0.5625 26.9375 C-0.73595947 28.22148682 -0.90941895 29.50547363 -1.08813477 30.82836914 C-8.2628455 81.77313675 -8.2628455 81.77313675 -19.375 93.80078125 C-23.87888781 97.12456384 -28.56336015 97.39236185 -34 97.4375 C-34.69867188 97.47037109 -35.39734375 97.50324219 -36.1171875 97.53710938 C-39.93710381 97.57675002 -41.88888631 97.07582376 -45.0625 94.91015625 C-47 92 -47 92 -47.046875 88.7265625 C-45.82436534 84.37479305 -44.17591201 80.45438388 -42.25 76.375 C-38.86724465 69.00868519 -35.79722186 61.61167104 -33 54 C-32.34 54 -31.68 54 -31 54 C-31.144375 54.68707031 -31.28875 55.37414062 -31.4375 56.08203125 C-31.623125 56.98308594 -31.80875 57.88414062 -32 58.8125 C-32.185625 59.70582031 -32.37125 60.59914063 -32.5625 61.51953125 C-33.08684843 64.07260693 -33.08684843 64.07260693 -33 67 C-33.66 67 -34.32 67 -35 67 C-35.268125 67.680625 -35.53625 68.36125 -35.8125 69.0625 C-36.204375 70.031875 -36.59625 71.00125 -37 72 C-37.24105469 72.61230469 -37.48210937 73.22460938 -37.73046875 73.85546875 C-39.77425614 78.88712807 -39.77425614 78.88712807 -42 80 C-43.03802187 83.92141595 -43.4489073 87.98489604 -44 92 C-40.12507034 95.37608814 -37.50934588 95.39456819 -32.53515625 95.21875 C-27.82522341 94.81234593 -24.31373467 94.23866412 -20.8125 90.9375 C-16.41771993 83.8149254 -12.71953626 75.4072131 -12 67 C-13.31702655 65.1232388 -13.31702655 65.1232388 -15 64 C-14.20996582 63.78239014 -13.41993164 63.56478027 -12.60595703 63.34057617 C-9.81008718 62.24578595 -9.81008718 62.24578595 -8.92919922 59.6027832 C-8.72311035 58.59562256 -8.51702148 57.58846191 -8.3046875 56.55078125 C-7.94540161 54.83435425 -7.94540161 54.83435425 -7.57885742 53.08325195 C-7.34658447 51.83890381 -7.11431152 50.59455566 -6.875 49.3125 C-6.62274658 48.03785889 -6.37049316 46.76321777 -6.1105957 45.44995117 C-3.52237447 31.94909513 -2.3144653 18.30838413 -1.29370117 4.61254883 C-1 2 -1 2 0 0 Z " fill="#15794A" transform="translate(239,358)"/>
<path d="M0 0 C0 3 0 3 -1.2578125 4.359375 C-21.18419895 19.19994733 -45.79346023 23.69085572 -70.2109375 20.5390625 C-81.72277569 18.48768672 -92.84080683 14.41458495 -102 7 C-99 6 -99 6 -96.3125 7.3125 C-95.549375 7.869375 -94.78625 8.42625 -94 9 C-94 9.66 -94 10.32 -94 11 C-93.236875 11.0825 -92.47375 11.165 -91.6875 11.25 C-88.49931373 11.89844467 -85.8874418 12.76478387 -82.875 13.9375 C-77.01895883 16.15264625 -71.18886575 17.17913823 -65 18 C-65 18.66 -65 19.32 -65 20 C-49.22932771 19.30704622 -33.52372624 17.94570873 -18.75 12.0859375 C-16.49268995 11.19455654 -14.36549812 10.51176642 -12 10 C-12 9.34 -12 8.68 -12 8 C-9.74594956 5.15277839 -7.32025193 4.29570807 -4 3 C-2.63634717 2.04175747 -1.29205831 1.05278825 0 0 Z " fill="#18764B" transform="translate(182,381)"/>
<path d="M0 0 C1.02480469 -0.00999023 2.04960937 -0.01998047 3.10546875 -0.03027344 C13.49799683 0.08660911 23.04504446 2.19452724 32.125 7.3125 C32.74439453 7.63863281 33.36378906 7.96476562 34.00195312 8.30078125 C38.11424277 10.5470266 41.05695758 13.02776309 44.1875 16.4375 C42.2075 16.1075 40.2275 15.7775 38.1875 15.4375 C38.1875 14.7775 38.1875 14.1175 38.1875 13.4375 C37.5275 13.4375 36.8675 13.4375 36.1875 13.4375 C36.1875 12.7775 36.1875 12.1175 36.1875 11.4375 C34.2075 11.1075 32.2275 10.7775 30.1875 10.4375 C30.1875 9.7775 30.1875 9.1175 30.1875 8.4375 C26.8875 7.4475 23.5875 6.4575 20.1875 5.4375 C20.1875 4.7775 20.1875 4.1175 20.1875 3.4375 C19.28257812 3.45490234 19.28257812 3.45490234 18.359375 3.47265625 C17.16054688 3.48619141 17.16054688 3.48619141 15.9375 3.5 C14.75414062 3.51740234 14.75414062 3.51740234 13.546875 3.53515625 C11.1875 3.4375 11.1875 3.4375 9.29296875 2.9440918 C5.7086419 2.08167549 2.10858937 2.21149405 -1.5625 2.1875 C-2.3359375 2.166875 -3.109375 2.14625 -3.90625 2.125 C-8.7758015 2.09231845 -12.46343367 2.82046224 -16.94628906 4.70263672 C-19.6746502 5.77699138 -22.42081651 6.19781948 -25.3125 6.625 C-26.87484375 6.86283203 -26.87484375 6.86283203 -28.46875 7.10546875 C-29.2421875 7.21503906 -30.015625 7.32460938 -30.8125 7.4375 C-30.8125 8.7575 -30.8125 10.0775 -30.8125 11.4375 C-31.4725 11.1075 -32.1325 10.7775 -32.8125 10.4375 C-36.22349168 10.4375 -39.44338314 10.92895406 -42.8125 11.4375 C-31.48193924 1.58483847 -14.30727674 0.08090424 0 0 Z " fill="#1A7E51" transform="translate(293.8125,16.5625)"/>
<path d="M0 0 C0.99 0.33 1.98 0.66 3 1 C3 16.47826087 3 16.47826087 2.15625 20.84375 C1.32832312 25.23409467 0.5366746 29.62779396 -0.21875 34.03125 C-0.42886719 35.25457031 -0.63898438 36.47789062 -0.85546875 37.73828125 C-1.06816406 38.97964844 -1.28085938 40.22101563 -1.5 41.5 C-2.13179185 45.18736698 -2.76459952 48.87429447 -3.4140625 52.55859375 C-3.79493439 54.7955813 -4.14563926 57.03798832 -4.4609375 59.28515625 C-4.60789063 60.27386719 -4.75484375 61.26257813 -4.90625 62.28125 C-5.08124023 63.5815918 -5.08124023 63.5815918 -5.25976562 64.90820312 C-6 67 -6 67 -8.06835938 68.29492188 C-8.70580078 68.52759766 -9.34324219 68.76027344 -10 69 C-9.58234375 67.13601563 -9.58234375 67.13601563 -9.15625 65.234375 C-4.60583799 44.70945323 -0.40431569 24.33190263 -1.02734375 3.203125 C-1 1 -1 1 0 0 Z " fill="#177C4C" transform="translate(229,304)"/>
<path d="M0 0 C0.66 0 1.32 0 2 0 C2.268125 0.804375 2.53625 1.60875 2.8125 2.4375 C3.204375 3.283125 3.59625 4.12875 4 5 C4.99 5.33 5.98 5.66 7 6 C10 10.33333333 10 10.33333333 10 13 C10.66 13 11.32 13 12 13 C12 13.66 12 14.32 12 15 C13.32 14.67 14.64 14.34 16 14 C16.226875 14.886875 16.45375 15.77375 16.6875 16.6875 C18.17339721 20.43762153 20.10370741 22.25614386 23 25 C23 25.66 23 26.32 23 27 C24.65 27.66 26.3 28.32 28 29 C28 29.66 28 30.32 28 31 C28.86625 31.2475 29.7325 31.495 30.625 31.75 C34 33 34 33 36.7734375 34.91015625 C40.12409704 37.08037762 43.23612787 38.37922427 47 39.6875 C48.175625 40.10386719 49.35125 40.52023437 50.5625 40.94921875 C53.71724407 41.91356665 56.73709124 42.54737089 60 43 C60 43.66 60 44.32 60 45 C45.60475273 43.69726269 32.76203268 37.52651231 22 28 C21.24976563 27.34773438 20.49953125 26.69546875 19.7265625 26.0234375 C13.20278391 19.92358676 7.89743844 12.70332069 2.52734375 5.59765625 C2.03999756 4.95320557 1.55265137 4.30875488 1.05053711 3.64477539 C0 2 0 2 0 0 Z " fill="#16764C" transform="translate(272,359)"/>
<path d="M0 0 C0.66 0 1.32 0 2 0 C-0.55913992 16.49223507 -10.20455824 29.04474191 -23.17578125 39.04296875 C-37.29620643 48.82766172 -37.29620643 48.82766172 -44 50 C-44 49.34 -44 48.68 -44 48 C-42.98679687 47.51080078 -42.98679687 47.51080078 -41.953125 47.01171875 C-41.06109375 46.57472656 -40.1690625 46.13773437 -39.25 45.6875 C-38.36828125 45.25824219 -37.4865625 44.82898438 -36.578125 44.38671875 C-33.98339185 43.07633928 -33.98339185 43.07633928 -31.796875 41.33203125 C-30 40 -30 40 -28 40 C-28 39.34 -28 38.68 -28 38 C-25.75440847 36.45303695 -23.42098248 35.10489275 -21.06640625 33.73046875 C-18.52672425 31.60366511 -18.30193668 30.23346732 -18 27 C-16.68 27.33 -15.36 27.66 -14 28 C-14 27.34 -14 26.68 -14 26 C-13.360625 25.525625 -12.72125 25.05125 -12.0625 24.5625 C-9.71627037 23.0908635 -9.71627037 23.0908635 -9 20 C-8.34 20 -7.68 20 -7 20 C-6.82984375 19.39414062 -6.6596875 18.78828125 -6.484375 18.1640625 C-4.68433058 11.94050468 -2.50381567 5.97357039 0 0 Z " fill="#177B4F" transform="translate(422,352)"/>
<path d="M0 0 C3.7856726 0.5738463 5.62951173 2.21632776 8.375 4.8125 C11.13720146 7.41033906 13.12133933 9.05960529 16.5625 10.75 C19 13 19 13 19.43359375 15.625 C19.54715772 20.96918701 18.94704412 25.70402078 17.453125 30.8046875 C15.90025642 38.32806805 16.72010002 45.75796477 19 53 C19.45421961 56.65871397 19.74728493 60.32233069 20 64 C14.8824394 58.8824394 14.82329524 50.64707035 14.74462891 43.77709961 C14.76026125 36.42208257 15.23103787 29.45874011 16.484375 22.19140625 C16.79044577 19.1622058 16.81164824 16.94913026 16 14 C13.45848342 11.4628428 10.82316446 9.69416529 7.78125 7.79296875 C4.35018337 5.58108732 2.37399117 3.27447058 0 0 Z " fill="#217E54" transform="translate(37,287)"/>
<path d="M0 0 C0.66 0 1.32 0 2 0 C5.45995823 21.50116901 5.31470186 41.76500683 -6 61 C-6.33 61 -6.66 61 -7 61 C-7 59.35 -7 57.7 -7 56 C-6.34 56 -5.68 56 -5 56 C-4.896875 55.34 -4.79375 54.68 -4.6875 54 C-4 51 -4 51 -2.5625 47.5 C2.95016869 32.9346646 1.9165801 15.22996684 0 0 Z " fill="#1A764E" transform="translate(455,211)"/>
<path d="M0 0 C0.99 0 1.98 0 3 0 C6.07692308 5.41538462 6.07692308 5.41538462 5.6875 8.375 C5.460625 8.91125 5.23375 9.4475 5 10 C4.67 8.68 4.34 7.36 4 6 C3.34 6 2.68 6 2 6 C1.01 22.5 0.02 39 -1 56 C-1.33 56 -1.66 56 -2 56 C-2.10260205 42.12978175 -2.16734286 28.29787946 -1.26782227 14.45043945 C-1.21940186 13.653396 -1.17098145 12.85635254 -1.12109375 12.03515625 C-1.0739624 11.3481665 -1.02683105 10.66117676 -0.97827148 9.95336914 C-0.92183642 7.95134025 -0.92183642 7.95134025 -1.55102539 5.88842773 C-2.15807446 3.33512454 -1.32624882 2.18440981 0 0 Z " fill="#147D4A" transform="translate(242,302)"/>
<path d="M0 0 C0.33 0 0.66 0 1 0 C0.85786703 1.89611434 0.71113093 3.79188394 0.5625 5.6875 C0.48128906 6.74324219 0.40007813 7.79898438 0.31640625 8.88671875 C0 12 0 12 -0.51855469 14.33056641 C-1.4340645 19.40672475 -0.98185354 24.5523562 -0.8125 29.6875 C-0.78446289 31.3880957 -0.78446289 31.3880957 -0.75585938 33.12304688 C-0.5403575 39.68262155 0.27619648 44.86232301 3.15356445 50.79223633 C4.12453288 53.32481996 4.14760627 55.31025286 4 58 C0.87267864 54.52420569 -0.09105094 50.75889372 -1.125 46.3125 C-1.29676758 45.59497559 -1.46853516 44.87745117 -1.64550781 44.13818359 C-2.81821888 39.10691155 -3.7627177 34.17077683 -4 29 C-4.0515625 28.27425781 -4.103125 27.54851562 -4.15625 26.80078125 C-4.50744808 17.94766296 -2.79753146 8.39259438 0 0 Z " fill="#1A7E53" transform="translate(18,207)"/>
<path d="M0 0 C0 0.33 0 0.66 0 1 C-4.88901152 1.19556046 -8.40527883 0.5641604 -13 -1 C-14.99961564 -1.03920815 -17.00049364 -1.04443347 -19 -1 C-19.99 -1.33 -20.98 -1.66 -22 -2 C-27.62573847 -2.23888486 -32.636876 -1.67376062 -38.125 -0.5 C-42.79780324 0.48796411 -47.20030753 1.17942776 -52 1 C-49.80726227 -1.19273773 -48.97250125 -1.42536005 -46.03515625 -2.0703125 C-45.24044922 -2.24481934 -44.44574219 -2.41932617 -43.62695312 -2.59912109 C-42.35754883 -2.85943115 -42.35754883 -2.85943115 -41.0625 -3.125 C-40.19947266 -3.30240723 -39.33644531 -3.47981445 -38.44726562 -3.66259766 C-24.93345822 -6.31002461 -12.88492625 -4.77219491 0 0 Z " fill="#188052" transform="translate(218,23)"/>
<path d="M0 0 C7.10783082 7.10783082 8.34067892 20.3679036 8.41748047 29.84521484 C8.35631209 34.56783577 8.23424303 39.28270571 8 44 C7.67 44 7.34 44 7 44 C7 38.06 7 32.12 7 26 C6.01 26.33 5.02 26.66 4 27 C3.46770674 25.73392393 2.94955456 24.46189588 2.4375 23.1875 C2.14746094 22.47980469 1.85742188 21.77210937 1.55859375 21.04296875 C1 19 1 19 2 16 C2.99 16.33 3.98 16.66 5 17 C4.34 16.01 3.68 15.02 3 14 C2.40743312 12.37180019 1.86944355 10.72313112 1.375 9.0625 C1.11460937 8.20785156 0.85421875 7.35320312 0.5859375 6.47265625 C0 4 0 4 0 0 Z " fill="#0C8650" transform="translate(359,59)"/>
<path d="M0 0 C0.33 0 0.66 0 1 0 C1.18520538 7.41850453 1.23650148 13.87115153 -1 21 C-1.59941492 26.98262197 -0.61479994 32.54667072 0.5546875 38.40234375 C1.11611488 41.67733677 1.14721042 44.6877656 1 48 C1.66 48 2.32 48 3 48 C3.625 50.3125 3.625 50.3125 4 53 C3.34 53.99 2.68 54.98 2 56 C1.35060264 53.62592408 0.70539947 51.2508361 0.0625 48.875 C-0.11990234 48.20984375 -0.30230469 47.5446875 -0.49023438 46.859375 C-4.67674139 31.33123989 -3.94524109 15.49916143 0 0 Z " fill="#19764B" transform="translate(119,72)"/>
<path d="M0 0 C17.97510691 -0.51740713 37.40371874 0.37927891 51.4609375 13.25390625 C52.22277344 14.11822266 52.22277344 14.11822266 53 15 C49.39214272 14.29392769 46.44365751 12.80532775 43.1875 11.125 C38.83900731 8.91372269 34.51513765 6.84291333 30 5 C29.23469971 4.65727051 28.46939941 4.31454102 27.6809082 3.96142578 C24.72234405 2.90042718 22.17475441 2.59203365 19.04296875 2.3671875 C17.93115234 2.28339844 16.81933594 2.19960937 15.67382812 2.11328125 C13.9480957 1.99533203 13.9480957 1.99533203 12.1875 1.875 C11.01767578 1.78863281 9.84785156 1.70226562 8.64257812 1.61328125 C5.76216103 1.40165877 2.8814147 1.197492 0 1 C0 0.67 0 0.34 0 0 Z " fill="#228158" transform="translate(375,155)"/>
<path d="M0 0 C-0.33 0.66 -0.66 1.32 -1 2 C-2.32 2 -3.64 2 -5 2 C-5 2.66 -5 3.32 -5 4 C-6.64548828 4.56267578 -6.64548828 4.56267578 -8.32421875 5.13671875 C-9.77891077 5.65289979 -11.23332336 6.1698688 -12.6875 6.6875 C-13.7693457 7.05391602 -13.7693457 7.05391602 -14.87304688 7.42773438 C-19.72997106 9.17977552 -22.61834661 11.08475239 -26 15 C-28.50357861 14.1654738 -30.66785852 13.20628008 -33 12 C-29.70923306 10.58123711 -26.41721966 9.16538824 -23.125 7.75 C-21.74828125 7.15638672 -21.74828125 7.15638672 -20.34375 6.55078125 C-17.56642939 5.3577069 -14.78420186 4.17691814 -12 3 C-11.05737305 2.59587891 -10.11474609 2.19175781 -9.14355469 1.77539062 C-8.24797852 1.40091797 -7.35240234 1.02644531 -6.4296875 0.640625 C-5.62515137 0.30063477 -4.82061523 -0.03935547 -3.99169922 -0.38964844 C-2 -1 -2 -1 0 0 Z " fill="#1C8056" transform="translate(363,159)"/>
<path d="M0 0 C0.99 0.495 0.99 0.495 2 1 C2.62557855 3.34666787 3.12907903 5.61689893 3.5625 8 C3.69180908 8.68553955 3.82111816 9.3710791 3.9543457 10.07739258 C6.80648055 25.52782491 6.14709451 39.60475386 3 55 C2.67 55 2.34 55 2 55 C1.84316829 50.13821697 1.93076167 45.81383373 3 41.0625 C5.50852913 29.43367568 3.0275735 18.31183927 0.375 6.9140625 C-0.08177851 4.58258884 -0.15279463 2.36831683 0 0 Z " fill="#257D56" transform="translate(422,297)"/>
<path d="M0 0 C0.99 0.33 1.98 0.66 3 1 C3 16.5 3 16.5 1.5 20.25 C1.2215625 20.95640625 0.943125 21.6628125 0.65625 22.390625 C0.4396875 22.92171875 0.223125 23.4528125 0 24 C-0.33 24 -0.66 24 -1 24 C-1.02887236 20.18751574 -1.04675492 16.3750593 -1.0625 12.5625 C-1.07087891 11.47388672 -1.07925781 10.38527344 -1.08789062 9.26367188 C-1.09111328 8.22919922 -1.09433594 7.19472656 -1.09765625 6.12890625 C-1.10289307 5.17056885 -1.10812988 4.21223145 -1.11352539 3.22485352 C-1 1 -1 1 0 0 Z " fill="#1E8B54" transform="translate(229,304)"/>
<path d="M0 0 C0.33 0 0.66 0 1 0 C1.17073174 5.03658636 1.06518283 8.35333863 -1 13 C-1 14.32 -1 15.64 -1 17 C-1.66 17 -2.32 17 -3 17 C-3.20496094 17.77085937 -3.40992188 18.54171875 -3.62109375 19.3359375 C-4.02521484 20.84027344 -4.02521484 20.84027344 -4.4375 22.375 C-4.70433594 23.37273437 -4.97117188 24.37046875 -5.24609375 25.3984375 C-6 28 -6 28 -7 30 C-7.66 30 -8.32 30 -9 30 C-6.4062076 19.87510861 -3.18602066 9.94987035 0 0 Z " fill="#127A49" transform="translate(218,375)"/>
<path d="M0 0 C10.14220948 1.30867219 18.83044451 5.70489231 28 10 C28 10.66 28 11.32 28 12 C26.39566191 11.52140759 24.79153584 11.04210442 23.1875 10.5625 C21.84751953 10.16224609 21.84751953 10.16224609 20.48046875 9.75390625 C18.64526945 9.19612127 16.81966274 8.60655425 15 8 C14.67 7.34 14.34 6.68 14 6 C11.64328449 5.20180463 9.33786625 4.50852775 6.9375 3.875 C6.27427734 3.69324219 5.61105469 3.51148438 4.92773438 3.32421875 C3.28708521 2.87569596 1.64377551 2.43692614 0 2 C0 1.34 0 0.68 0 0 Z " fill="#187E4F" transform="translate(106,155)"/>
<path d="M0 0 C0.33 0.66 0.66 1.32 1 2 C1.66 2 2.32 2 3 2 C3.37125 2.99 3.7425 3.98 4.125 5 C6.0274965 9.45129563 8.69642883 13.45717298 12 17 C12.66 17 13.32 17 14 17 C14 18.65 14 20.3 14 22 C6.69427389 17.12951593 1.99355301 9.10020225 -1 1 C-0.67 0.67 -0.34 0.34 0 0 Z " fill="#12784A" transform="translate(23,265)"/>
<path d="M0 0 C-0.61488281 0.32613281 -1.22976562 0.65226563 -1.86328125 0.98828125 C-2.67152344 1.42527344 -3.47976562 1.86226562 -4.3125 2.3125 C-5.11300781 2.74175781 -5.91351563 3.17101562 -6.73828125 3.61328125 C-8.83787272 4.90059554 -10.35447721 6.18406708 -12 8 C-12.33 7.34 -12.66 6.68 -13 6 C-15.64 6.66 -18.28 7.32 -21 8 C-18.53247709 5.14901069 -15.93068057 3.87822831 -12.5 2.375 C-11.5409375 1.94960937 -10.581875 1.52421875 -9.59375 1.0859375 C-5.8469527 -0.48275173 -3.88917255 -1.20698458 0 0 Z M-14 8 C-12 9 -12 9 -12 9 Z " fill="#138A53" transform="translate(73,157)"/>
<path d="M0 0 C0.66 0 1.32 0 2 0 C2.27263672 0.95712891 2.27263672 0.95712891 2.55078125 1.93359375 C2.80214844 2.75988281 3.05351563 3.58617187 3.3125 4.4375 C3.55613281 5.26121094 3.79976563 6.08492187 4.05078125 6.93359375 C4.36402344 7.61550781 4.67726563 8.29742187 5 9 C5.99 9.33 6.98 9.66 8 10 C9.03432904 11.98246398 10.03238392 13.98413316 11 16 C11.53625 16.515625 12.0725 17.03125 12.625 17.5625 C14.5064252 19.52944453 14.64268962 21.35590317 15 24 C8.35908218 18.16404192 3.51746001 10.06946707 0 2 C0 1.34 0 0.68 0 0 Z " fill="#197C51" transform="translate(122,128)"/>
<path d="M0 0 C0 0.66 0 1.32 0 2 C-10.23 2 -20.46 2 -31 2 C-31 1.67 -31 1.34 -31 1 C-20.6375919 -0.69429154 -10.39542221 -2.24765886 0 0 Z " fill="#208355" transform="translate(105,154)"/>
<path d="M0 0 C1.8125 0.5 1.8125 0.5 4 2 C5.92471503 5.7992201 7.01008551 9.87381439 8 14 C8.66 14 9.32 14 10 14 C11.5625 16.8125 11.5625 16.8125 13 20 C12.67 20.99 12.34 21.98 12 23 C0 3.89320388 0 3.89320388 0 0 Z " fill="#14814C" transform="translate(256,332)"/>
<path d="M0 0 C7.44081905 3.83314921 12.40980645 10.18425806 17 17 C16.67 17.66 16.34 18.32 16 19 C13 17 13 17 11.625 14.6875 C9.16979816 10.62697387 6.34151892 7.74528829 2.1875 5.4375 C1.465625 4.963125 0.74375 4.48875 0 4 C0 2.68 0 1.36 0 0 Z " fill="#1A7D51" transform="translate(338,33)"/>
<path d="M0 0 C1.35114472 3.05744748 0.9224598 4.22040365 -0.21484375 7.453125 C-0.77745053 8.72395443 -1.35209051 9.98951218 -1.9375 11.25 C-2.22818359 11.8996875 -2.51886719 12.549375 -2.81835938 13.21875 C-3.53528975 14.81715215 -4.26628949 16.40923054 -5 18 C-5.33 18 -5.66 18 -6 18 C-6.125 11.25 -6.125 11.25 -5 9 C-5.99 8.67 -6.98 8.34 -8 8 C-6.576875 7.4121875 -6.576875 7.4121875 -5.125 6.8125 C-1.65872662 4.80206144 -1.0197307 3.77300358 0 0 Z " fill="#268D57" transform="translate(227,308)"/>
<path d="M0 0 C5.36327801 0.80331036 7.91230152 4.86232849 11 9 C12.4375 12 12.4375 12 13 14 C11.0625 13.625 11.0625 13.625 9 13 C7.66666667 10.33333333 6.33333333 7.66666667 5 5 C4.01 4.67 3.02 4.34 2 4 C2 3.01 2 2.02 2 1 C1.34 0.67 0.68 0.34 0 0 Z " fill="#1B8054" transform="translate(435,178)"/>
<path d="M0 0 C0.66 0.33 1.32 0.66 2 1 C0.68 2.65 -0.64 4.3 -2 6 C-0.02 5.34 1.96 4.68 4 4 C3.67 4.66 3.34 5.32 3 6 C2.34 6 1.68 6 1 6 C1 6.66 1 7.32 1 8 C-0.98 8.33 -2.96 8.66 -5 9 C-5.6875 7.1875 -5.6875 7.1875 -6 5 C-4.26165827 2.74015575 -2.40298607 1.60199072 0 0 Z " fill="#197D4A" transform="translate(326,168)"/>
<path d="M0 0 C0.33 0 0.66 0 1 0 C1.30372936 8.00945568 1.50848663 14.69065285 -2 22 C-2.33 22 -2.66 22 -3 22 C-2.59722507 14.45326965 -2.17808026 7.26026753 0 0 Z " fill="#228056" transform="translate(119,72)"/>
<path d="M0 0 C-1.53643852 3.68069887 -3.78150945 5.98775204 -6.625 8.75 C-7.85089844 9.94882812 -7.85089844 9.94882812 -9.1015625 11.171875 C-9.72804687 11.77515625 -10.35453125 12.3784375 -11 13 C-11.99 12.34 -12.98 11.68 -14 11 C-12.68 10.67 -11.36 10.34 -10 10 C-10 9.34 -10 8.68 -10 8 C-9.34 8 -8.68 8 -8 8 C-7.7525 7.236875 -7.505 6.47375 -7.25 5.6875 C-5.70306331 2.36158611 -3.87029488 0 0 0 Z " fill="#1E7E51" transform="translate(197,368)"/>
<path d="M0 0 C0.66 0.33 1.32 0.66 2 1 C2 1.99 2 2.98 2 4 C1.05125 4.103125 0.1025 4.20625 -0.875 4.3125 C-4.29107501 4.68539295 -4.29107501 4.68539295 -6 8 C-8.97 7.505 -8.97 7.505 -12 7 C-12 6.67 -12 6.34 -12 6 C-11.13375 5.7525 -10.2675 5.505 -9.375 5.25 C-5.81697746 3.93221387 -3.0773845 2.19813178 0 0 Z M3 1 C5 2 5 2 5 2 Z " fill="#1E8859" transform="translate(249,28)"/>
<path d="M0 0 C0.66 0.33 1.32 0.66 2 1 C0.13501059 4.29115778 -0.8580255 4.95516595 -4.5625 6.125 C-5.696875 6.41375 -6.83125 6.7025 -8 7 C-8.66 7.66 -9.32 8.32 -10 9 C-12.125 8.625 -12.125 8.625 -14 8 C-11.7136988 6.63597957 -9.42178251 5.28365726 -7.125 3.9375 C-6.47402344 3.54755859 -5.82304687 3.15761719 -5.15234375 2.75585938 C-3.46934275 1.77555467 -1.73703801 0.88101568 0 0 Z " fill="#1B8256" transform="translate(163,24)"/>
<path d="M0 0 C4.53847198 1.34927545 8.31932246 3.19159348 12.375 5.625 C13.43460938 6.25664062 14.49421875 6.88828125 15.5859375 7.5390625 C16.38257813 8.02117188 17.17921875 8.50328125 18 9 C17.01 9.495 17.01 9.495 16 10 C14.30419922 9.37915039 14.30419922 9.37915039 12.3046875 8.34765625 C11.58925781 7.98349609 10.87382812 7.61933594 10.13671875 7.24414062 C9.39035156 6.85419922 8.64398438 6.46425781 7.875 6.0625 C6.74384766 5.48338867 6.74384766 5.48338867 5.58984375 4.89257812 C3.72290903 3.93547868 1.86097372 2.96863894 0 2 C0 1.34 0 0.68 0 0 Z " fill="#1B7D54" transform="translate(219,24)"/>
<path d="M0 0 C0.99 0 1.98 0 3 0 C3 2.31 3 4.62 3 7 C3.66 7 4.32 7 5 7 C5 7.66 5 8.32 5 9 C5.66 9.33 6.32 9.66 7 10 C7.4140625 12.06640625 7.4140625 12.06640625 7.625 14.5625 C7.69976562 15.38878906 7.77453125 16.21507812 7.8515625 17.06640625 C7.90054688 17.70449219 7.94953125 18.34257812 8 19 C5.24020259 15.71414149 3.81690532 12.37771204 2.3125 8.375 C1.87550781 7.22773438 1.43851563 6.08046875 0.98828125 4.8984375 C0 2 0 2 0 0 Z " fill="#1C8253" transform="translate(248,313)"/>
<path d="M0 0 C0.93134766 0.00322266 1.86269531 0.00644531 2.82226562 0.00976562 C4.26182617 0.02233398 4.26182617 0.02233398 5.73046875 0.03515625 C6.70951172 0.03966797 7.68855469 0.04417969 8.69726562 0.04882812 C11.10422986 0.06056941 13.51106732 0.07699206 15.91796875 0.09765625 C15.91796875 0.42765625 15.91796875 0.75765625 15.91796875 1.09765625 C14.84417969 1.15824219 13.77039063 1.21882812 12.6640625 1.28125 C11.2278556 1.36573276 9.79165817 1.45037679 8.35546875 1.53515625 C7.65099609 1.57447266 6.94652344 1.61378906 6.22070312 1.65429688 C2.76980101 1.86103295 -0.50421511 2.17023923 -3.921875 2.7578125 C-7.08203125 3.09765625 -7.08203125 3.09765625 -10.08203125 1.09765625 C-6.65629188 0.32237146 -3.5096388 -0.02153153 0 0 Z " fill="#168051" transform="translate(374.08203125,155.90234375)"/>
<path d="M0 0 C4.42116304 1.35091093 6.48076658 3.13117725 9 7 C9.75 9.8125 9.75 9.8125 10 12 C8.35 11.67 6.7 11.34 5 11 C5.66 10.34 6.32 9.68 7 9 C5.16061205 6.65319469 3.36001751 4.36001751 1.25 2.25 C0.8375 1.8375 0.425 1.425 0 1 C0 0.67 0 0.34 0 0 Z " fill="#268258" transform="translate(149,165)"/>
<path d="M0 0 C1.32 0 2.64 0 4 0 C2.63629701 2.99220268 1.05091917 5.29026529 -1.125 7.75 C-1.93324219 8.67039063 -1.93324219 8.67039063 -2.7578125 9.609375 C-3.16773438 10.06828125 -3.57765625 10.5271875 -4 11 C-4.66 10.67 -5.32 10.34 -6 10 C-5.34 8.68 -4.68 7.36 -4 6 C-3.34 6 -2.68 6 -2 6 C-2 5.34 -2 4.68 -2 4 C-1.34 4 -0.68 4 0 4 C-0.33 3.01 -0.66 2.02 -1 1 C-0.67 0.67 -0.34 0.34 0 0 Z " fill="#147C4C" transform="translate(350,139)"/>
<path d="M0 0 C0 0.66 0 1.32 0 2 C-0.66 2 -1.32 2 -2 2 C-2 2.66 -2 3.32 -2 4 C-3.96875 5.5078125 -3.96875 5.5078125 -6.5 7.125 C-7.3353125 7.66382813 -8.170625 8.20265625 -9.03125 8.7578125 C-9.6809375 9.16773438 -10.330625 9.57765625 -11 10 C-11.66 9.67 -12.32 9.34 -13 9 C-11.40423801 7.49106184 -9.79810089 5.99308924 -8.1875 4.5 C-7.29417969 3.6646875 -6.40085938 2.829375 -5.48046875 1.96875 C-3 0 -3 0 0 0 Z " fill="#278452" transform="translate(149,34)"/>
<path d="M0 0 C0.33 0 0.66 0 1 0 C2.98598493 5.95795479 3.57045059 11.74892565 4 18 C0.9166097 14.9166097 0.08210398 11.71905218 -0.125 7.3828125 C-0.125 4.91864582 -0.08759884 2.46250068 0 0 Z " fill="#15814E" transform="translate(53,333)"/>
<path d="M0 0 C3.48670834 1.1094072 6.77484237 2.26337666 10 4 C10 4.66 10 5.32 10 6 C8.35 6 6.7 6 5 6 C5 5.34 5 4.68 5 4 C4.01 4 3.02 4 2 4 C1.67 4.66 1.34 5.32 1 6 C0.34 4.35 -0.32 2.7 -1 1 C-0.67 0.67 -0.34 0.34 0 0 Z " fill="#158952" transform="translate(144,170)"/>
<path d="M0 0 C2.75361142 2.75361142 3.47414027 5.99845364 4.625 9.625 C4.96917969 10.68460938 4.96917969 10.68460938 5.3203125 11.765625 C5.88562421 13.50866945 6.44352544 15.25411416 7 17 C6.34 17 5.68 17 5 17 C3.14670366 14.22005549 2.31436395 12.21743449 1.375 9.0625 C1.11460937 8.20785156 0.85421875 7.35320312 0.5859375 6.47265625 C0 4 0 4 0 0 Z " fill="#1D794D" transform="translate(359,59)"/>
<path d="M0 0 C0.66 0 1.32 0 2 0 C1.855625 0.68707031 1.71125 1.37414062 1.5625 2.08203125 C1.376875 2.98308594 1.19125 3.88414062 1 4.8125 C0.814375 5.70582031 0.62875 6.59914063 0.4375 7.51953125 C-0.08684843 10.07260693 -0.08684843 10.07260693 0 13 C-0.66 13 -1.32 13 -2 13 C-2.33 13.66 -2.66 14.32 -3 15 C-4.18956883 10.84773144 -3.78960563 8.61274007 -2.0625 4.6875 C-1.68222656 3.80449219 -1.30195313 2.92148437 -0.91015625 2.01171875 C-0.60980469 1.34785156 -0.30945313 0.68398438 0 0 Z " fill="#11854F" transform="translate(206,412)"/>
<path d="M0 0 C3 1 3 1 4.203125 2.92578125 C4.54859375 3.71339844 4.8940625 4.50101562 5.25 5.3125 C5.60578125 6.09238281 5.9615625 6.87226563 6.328125 7.67578125 C7.0711335 10.24607227 6.88750996 11.51383429 6 14 C4.99515796 12.04414675 3.99626195 10.08523763 3 8.125 C2.1646875 6.48917969 2.1646875 6.48917969 1.3125 4.8203125 C0 2 0 2 0 0 Z " fill="#197D4D" transform="translate(57,352)"/>
<path d="M0 0 C0.33 0.66 0.66 1.32 1 2 C1.66 2 2.32 2 3 2 C3 4.31 3 6.62 3 9 C2.34 8.67 1.68 8.34 1 8 C0.67 8.33 0.34 8.66 0 9 C-0.66 8.67 -1.32 8.34 -2 8 C-2.625 5.4375 -2.625 5.4375 -3 3 C-2.34 2.67 -1.68 2.34 -1 2 C-0.67 3.32 -0.34 4.64 0 6 C0 5.01 0 4.02 0 3 C0 2.01 0 1.02 0 0 Z " fill="#109259" transform="translate(139,145)"/>
<path d="M0 0 C0.66 1.32 1.32 2.64 2 4 C0.1875 6.5 0.1875 6.5 -2 9 C-2.99 9 -3.98 9 -5 9 C-3.7508258 5.54074837 -2.32472205 2.85306797 0 0 Z " fill="#1C8757" transform="translate(130,51)"/>
<path d="M0 0 C1.32 0.33 2.64 0.66 4 1 C4 1.66 4 2.32 4 3 C4.66 3 5.32 3 6 3 C6.28875 3.61875 6.5775 4.2375 6.875 4.875 C7.93720042 7.13325765 7.93720042 7.13325765 10 9 C7 9 7 9 5.17578125 7.5390625 C4.56089844 6.90742188 3.94601563 6.27578125 3.3125 5.625 C2.68988281 4.99851562 2.06726563 4.37203125 1.42578125 3.7265625 C0 2 0 2 0 0 Z " fill="#1B7B54" transform="translate(71,377)"/>
<path d="M0 0 C3.13671875 0.6796875 3.13671875 0.6796875 6.6875 1.875 C7.86699219 2.26429687 9.04648438 2.65359375 10.26171875 3.0546875 C11.61716797 3.52261719 11.61716797 3.52261719 13 4 C13 4.33 13 4.66 13 5 C7.06997733 5.37851209 2.52760359 4.10575375 -3 2 C-2.01 1.34 -1.02 0.68 0 0 Z " fill="#187A4B" transform="translate(205,19)"/>
<path d="M0 0 C0.66 0 1.32 0 2 0 C1.39254603 4.85963179 -0.72758967 8.7405518 -3 13 C-3.33 13 -3.66 13 -4 13 C-4.63934602 7.88523181 -2.40533547 4.32745622 0 0 Z " fill="#1E8456" transform="translate(215,335)"/>
<path d="M0 0 C1.125 3.75 1.125 3.75 0 6 C-0.66 6 -1.32 6 -2 6 C-2 7.65 -2 9.3 -2 11 C-2.99 10.67 -3.98 10.34 -5 10 C-3.84414715 6.08788267 -2.64465038 3.1254959 0 0 Z " fill="#208358" transform="translate(30,183)"/>
<path d="M0 0 C1.8871875 0.0309375 1.8871875 0.0309375 3.8125 0.0625 C2.4925 1.3825 1.1725 2.7025 -0.1875 4.0625 C-2.69107861 3.2279738 -4.85535852 2.26878008 -7.1875 1.0625 C-4.43671116 0.14557039 -2.82801087 -0.04636083 0 0 Z " fill="#158D57" transform="translate(337.1875,169.9375)"/>
<path d="M0 0 C0.66 0.33 1.32 0.66 2 1 C-0.43044383 4.64566574 -1.82388959 4.9977335 -6 6 C-8.1953125 5.546875 -8.1953125 5.546875 -10 5 C-8.38007835 4.13624104 -6.75388139 3.28424146 -5.125 2.4375 C-4.22007812 1.96183594 -3.31515625 1.48617188 -2.3828125 0.99609375 C-1.20332031 0.50302734 -1.20332031 0.50302734 0 0 Z " fill="#1E8052" transform="translate(261,22)"/>
<path d="M0 0 C3.34409033 1.11469678 4.59166535 2.51138753 7 5 C7.33 5 7.66 5 8 5 C8 6.65 8 8.3 8 10 C4.82537057 7.59757773 2.14248259 5.38286724 0 2 C0 1.34 0 0.68 0 0 Z " fill="#1B7C50" transform="translate(29,277)"/>
<path d="M0 0 C2.375 0.25 2.375 0.25 5 1 C6.1875 3 6.1875 3 7 5 C7.66 5.33 8.32 5.66 9 6 C8.67 6.99 8.34 7.98 8 9 C6.66368764 7.6905332 5.33102075 6.37734515 4 5.0625 C3.2575 4.33160156 2.515 3.60070312 1.75 2.84765625 C0 1 0 1 0 0 Z " fill="#23845D" transform="translate(140,156)"/>
<path d="M0 0 C6.11090483 -0.09945415 11.97403427 -0.0712828 18 1 C15 3 15 3 12 4 C11.34 3.34 10.68 2.68 10 2 C7.56747339 1.53837573 7.56747339 1.53837573 4.875 1.375 C3.96492187 1.30023437 3.05484375 1.22546875 2.1171875 1.1484375 C1.41851562 1.09945313 0.71984375 1.05046875 0 1 C0 0.67 0 0.34 0 0 Z " fill="#28805A" transform="translate(187,18)"/>
<path d="M0 0 C0.99 0.495 0.99 0.495 2 1 C3.00496852 4.01490557 3.10335303 6.04181692 3.0625 9.1875 C3.05347656 10.08855469 3.04445313 10.98960937 3.03515625 11.91796875 C3.02355469 12.60503906 3.01195312 13.29210937 3 14 C2.67 14 2.34 14 2 14 C-0.29612756 4.58997722 -0.29612756 4.58997722 0 0 Z " fill="#1B8350" transform="translate(422,297)"/>
<path d="M0 0 C0.66 0.99 1.32 1.98 2 3 C2.33 3.33 2.66 3.66 3 4 C3 4.99 3 5.98 3 7 C1.35 7.33 -0.3 7.66 -2 8 C-1.125 2.25 -1.125 2.25 0 0 Z " fill="#188A53" transform="translate(124,60)"/>
<path d="M0 0 C0.66 0 1.32 0 2 0 C1.46884894 4.51478398 -0.36620292 7.34666857 -3 11 C-4 8 -4 8 -3.22265625 5.95703125 C-2.83980469 5.24933594 -2.45695313 4.54164063 -2.0625 3.8125 C-1.68222656 3.09707031 -1.30195313 2.38164062 -0.91015625 1.64453125 C-0.60980469 1.10183594 -0.30945313 0.55914062 0 0 Z " fill="#178253" transform="translate(208,348)"/>
<path d="M0 0 C1.32 0.33 2.64 0.66 4 1 C1.69 3.31 -0.62 5.62 -3 8 C-3.33 7.01 -3.66 6.02 -4 5 C-2.0625 2.3125 -2.0625 2.3125 0 0 Z " fill="#1E7F51" transform="translate(332,160)"/>
<path d="M0 0 C4 1 4 1 5.8125 3.875 C7 7 7 7 6 10 C4.02 6.7 2.04 3.4 0 0 Z " fill="#197D54" transform="translate(262,345)"/>
<path d="M0 0 C1.9375 0.625 1.9375 0.625 4 2 C4.75 5.125 4.75 5.125 5 8 C4.34 7.67 3.68 7.34 3 7 C3 6.01 3 5.02 3 4 C2.34 4 1.68 4 1 4 C0.67 4.99 0.34 5.98 0 7 C0 4.69 0 2.38 0 0 Z " fill="#2C825B" transform="translate(243,304)"/>
<path d="M0 0 C-3.03525486 2.02350324 -4.19426202 2.32124018 -7.6875 2.625 C-8.49574219 2.69976562 -9.30398437 2.77453125 -10.13671875 2.8515625 C-10.75160156 2.90054688 -11.36648437 2.94953125 -12 3 C-8.61613364 -0.38386636 -4.56431325 -1.75550509 0 0 Z " fill="#258258" transform="translate(73,157)"/>
<path d="M0 0 C0.66 0.33 1.32 0.66 2 1 C1.01 3.97 0.02 6.94 -1 10 C-1.33 10 -1.66 10 -2 10 C-2.17942163 6.05272412 -2.09350689 3.4019487 0 0 Z " fill="#1C8456" transform="translate(219,325)"/>
<path d="M0 0 C1.98 0.99 1.98 0.99 4 2 C4 5.96 4 9.92 4 14 C3.67 14 3.34 14 3 14 C2.92652344 12.98679687 2.92652344 12.98679687 2.8515625 11.953125 C2.77679688 11.06109375 2.70203125 10.1690625 2.625 9.25 C2.55539063 8.36828125 2.48578125 7.4865625 2.4140625 6.578125 C2.00149945 4.00933618 1.28839043 2.24158985 0 0 Z " fill="#0F7C4A" transform="translate(52,298)"/>
<path d="M0 0 C0.66 0.99 1.32 1.98 2 3 C1.01 3.99 0.02 4.98 -1 6 C-1.66 5.67 -2.32 5.34 -3 5 C-3 5.66 -3 6.32 -3 7 C-3.66 6.67 -4.32 6.34 -5 6 C-3.35 4.02 -1.7 2.04 0 0 Z " fill="#1F835A" transform="translate(36,176)"/>
<path d="M0 0 C0.66 0 1.32 0 2 0 C2 0.66 2 1.32 2 2 C1.34 2 0.68 2 0 2 C-0.226875 2.639375 -0.45375 3.27875 -0.6875 3.9375 C-2 6 -2 6 -4.625 6.75 C-5.800625 6.87375 -5.800625 6.87375 -7 7 C-4.66666667 4.66666667 -2.33333333 2.33333333 0 0 Z " fill="#25865B" transform="translate(44,169)"/>
<path d="M0 0 C1.98 0.99 1.98 0.99 4 2 C3.01 4.31 2.02 6.62 1 9 C0.67 9 0.34 9 0 9 C0 6.03 0 3.06 0 0 Z " fill="#27885D" transform="translate(228,319)"/>
<path d="M0 0 C0.33 0.66 0.66 1.32 1 2 C1.66 2 2.32 2 3 2 C3.625 4.3125 3.625 4.3125 4 7 C3.01 8.485 3.01 8.485 2 10 C0.68373308 6.38026598 0 3.90432869 0 0 Z " fill="#227B50" transform="translate(119,118)"/>
<path d="M0 0 C0 0.66 0 1.32 0 2 C-1.53125 3.2890625 -1.53125 3.2890625 -3.5 4.625 C-4.1496875 5.07101562 -4.799375 5.51703125 -5.46875 5.9765625 C-5.9740625 6.31429688 -6.479375 6.65203125 -7 7 C-6.2421875 3.21875 -6.2421875 3.21875 -4.0625 1.25 C-2 0 -2 0 0 0 Z " fill="#0F7647" transform="translate(437,286)"/>
<path d="M0 0 C0.66 0 1.32 0 2 0 C0.8141763 3.37503669 -0.27573689 5.64722731 -3 8 C-2.25 2.25 -2.25 2.25 0 0 Z " fill="#1B7D4F" transform="translate(357,131)"/>
</svg>
